<svg width="19" height="18" viewBox="0 0 19 18" fill="none" xmlns="http://www.w3.org/2000/svg">
<rect x="6.04718" y="14.5645" width="4.49339" height="1.65833" fill="black" fill-opacity="0.976471"/>
<rect x="4.78729" y="16.2222" width="7.05504" height="1.28" rx="0.64" fill="black" fill-opacity="0.976471"/>
<path fill-rule="evenodd" clip-rule="evenodd" d="M7.95478 4.7373H1.25983C0.564045 4.7373 0 5.30135 0 5.99713V13.3041C0 13.9999 0.564044 14.564 1.25983 14.564H15.2019C15.8977 14.564 16.4618 13.9999 16.4618 13.3041V7.93419C16.1331 7.93645 15.7403 7.93942 15.3073 7.9427C15.2658 7.94301 15.224 7.94333 15.1818 7.94365V13.284H1.28V6.01731H7.89589C7.86798 5.87144 7.85294 5.71824 7.85294 5.558C7.85294 5.26088 7.88973 4.98771 7.95478 4.7373Z" fill="black"/>
<path d="M9.97723 8.10313L10.0125 8.10704H10.0479H16.0837C16.9108 8.10704 17.428 7.6505 17.7017 7.13478C17.9545 6.65854 18.0102 6.12781 18.0102 5.81018C18.0102 5.14464 17.7852 4.57429 17.3331 4.17262C17.039 3.91133 16.6821 3.75103 16.301 3.66651C16.0475 2.09894 14.7474 1.07388 13.1861 1.07387C11.7322 1.07385 10.5268 1.63788 10.0008 2.67483C9.57931 2.75413 9.12563 2.9441 8.73564 3.26131C8.18082 3.71259 7.76461 4.41543 7.75111 5.37359C7.73793 6.30985 8.08329 6.98961 8.56436 7.43856C9.0248 7.86824 9.57849 8.05882 9.97723 8.10313Z" stroke="black" stroke-width="1.28"/>
</svg>
